# xmcd CD database file
#
# Track frame offsets:
#	150
#	22820
#	45300
#	67650
#	88432
#	110445
#	130822
#	153175
#	172332
#	192847
#	208347
#	226905
#	248567
#	269622
#
# Disc length: 3871 seconds
#
# Revision: 2
# Processed by: cddbd v1.4PL0 Copyright (c) Steve Scherf et al.
# Submitted via: CDex 1.40Release
#
DISCID=ba0f1d0e
DTITLE=Country Fest - Vol 1
DYEAR=1900
DGENRE=Country
TTITLE0=Pura Emoção - Bailão de Peão
TTITLE1=Cerveja - Anarrie
TTITLE2=Festa de Rodeio - Peão Apaixonado
TTITLE3=Eu me Amarrei - Coração de Peão
TTITLE4=Achei uma Louca - Não Vivo sem Você
TTITLE5=Pedindo Bis - Rosto Molhado
TTITLE6=Mais uma noite sem Você - Vou te amarrar na minha cama
TTITLE7=Moreninha Linda - Pinga em Mim
TTITLE8=Tira a Roupa - Tô Ficando Louco
TTITLE9=Fio de Cabelo - Casa, Separa
TTITLE10=Segura Peão - Cowboy Conquistador
TTITLE11=Cai nos meus Braços - Viola está Chorando
TTITLE12=De São Paulo a Belém - Forró Bailão
TTITLE13=Country Fest - Pé na Estrada
EXTD=ID3G: 2
EXTT0=
EXTT1=
EXTT2=
EXTT3=
EXTT4=
EXTT5=
EXTT6=
EXTT7=
EXTT8=
EXTT9=
EXTT10=
EXTT11=
EXTT12=
EXTT13=
PLAYORDER=
